<svg xmlns="http://www.w3.org/2000/svg" version="1.1" xmlns:xlink="http://www.w3.org/1999/xlink" xmlns:svgjs="http://svgjs.com/svgjs" width="1920" height="1080" preserveAspectRatio="none" viewBox="0 0 1920 1080"><g mask="url(&quot;#SvgjsMask1000&quot;)" fill="none"><rect width="1920" height="1080" x="0" y="0" fill="#0e2a47"></rect><path d="M0,765.952C141.229,754.11,205.143,581.347,323.94,504.061C441.762,427.409,608.194,428.94,691.756,315.914C780.117,196.396,802.716,34.735,779.453,-112.068C756.345,-257.894,676.557,-393.087,564.222,-488.901C459.62,-578.12,318.15,-599.363,182.427,-621.29C61.03,-640.903,-56.98,-625.712,-178.802,-608.942C-322.223,-589.198,-494.624,-620.006,-593.703,-514.447C-692.608,-409.073,-662.505,-239.571,-661.14,-95.058C-659.95,30.974,-638.743,153.145,-586.317,267.762C-533.916,382.326,-456.843,479.905,-360.84,561.478C-253.309,652.847,-140.614,777.742,0,765.952" fill="#0c253e"></path><path d="M1920 1857.5639999999999C2077.389 1848.636 2256.565 1893.518 2378.995 1794.211 2500.734 1695.4650000000001 2475.366 1505.738 2533.31 1360.089 2587.457 1223.982 2698.878 1112.856 2708.214 966.672 2718.641 803.4010000000001 2680.9880000000003 635.7529999999999 2588.174 501.024 2489.917 358.395 2344.547 248.851 2178.889 198.30600000000004 2012.33 147.486 1818.399 133.17200000000003 1667.5149999999999 220.11400000000003 1522.651 303.587 1509.255 503.86 1412.266 640.046 1327.6860000000001 758.808 1186.99 830.808 1135.458 967.2 1077.0549999999998 1121.779 1053.711 1295.05 1105.5059999999999 1451.967 1159.876 1616.685 1271.0030000000002 1770.931 1426.275 1848.252 1576.667 1923.143 1752.263 1867.079 1920 1857.5639999999999" fill="#103050"></path></g><defs><mask id="SvgjsMask1000"><rect width="1920" height="1080" fill="#ffffff"></rect></mask></defs></svg>